# xmcd
#
# Track frame offsets: 
#        150
#        17950
#        41060
#        64944
#        80390
#        98617
#        118407
#        138770
#        160225
#        175198
#        193482
#        208452
#        224429
#        241500
#        259615
#        277438
#
# Disc length: 3926 seconds
#
# Revision: 0
# Processed by: cddbd v1.5.2PL0 Copyright (c) Steve Scherf et al.
# Submitted via: ExactAudioCopy v1.2
#
DISCID=f70f5410
DTITLE=Charlie Landsborough - Destination
DYEAR=2012
DGENRE=Country
TTITLE0=Just Getting By
TTITLE1=That's What Love Can Do
TTITLE2=Everything Has A Price
TTITLE3=Goodbye My Friend
TTITLE4=I Must Be An Eskimo
TTITLE5=Something Close To Love
TTITLE6=Looking For A Destination
TTITLE7=Sunset Man
TTITLE8=The Lions Share
TTITLE9=Let It Rain
TTITLE10=Serves Me Right
TTITLE11=Angel Of Mercy
TTITLE12=All He Ever Saw Was You
TTITLE13=Yesterday Just Passed My Way Again
TTITLE14=The Way Back Home
TTITLE15=There's Nothing Time Can Do
EXTD=
EXTT0=
EXTT1=
EXTT2=
EXTT3=
EXTT4=
EXTT5=
EXTT6=
EXTT7=
EXTT8=
EXTT9=
EXTT10=
EXTT11=
EXTT12=
EXTT13=
EXTT14=
EXTT15=
PLAYORDER=
